<?xml version="1.0" encoding="UTF-8" standalone="no"?>
<!-- Uploaded to: SVG Repo, www.svgrepo.com, Generator: SVG Repo Mixer Tools -->

<svg
   fill="#000000"
   height="625.6579"
   width="800.00012"
   version="1.1"
   id="Capa_1"
   viewBox="0 0 486.98207 380.85517"
   xml:space="preserve"
   sodipodi:docname="tag-icon.svg"
   inkscape:version="1.4.2 (f4327f4, 2025-05-13)"
   xmlns:inkscape="http://www.inkscape.org/namespaces/inkscape"
   xmlns:sodipodi="http://sodipodi.sourceforge.net/DTD/sodipodi-0.dtd"
   xmlns="http://www.w3.org/2000/svg"
   xmlns:svg="http://www.w3.org/2000/svg"
   xmlns:rdf="http://www.w3.org/1999/02/22-rdf-syntax-ns#"
   xmlns:cc="http://creativecommons.org/ns#"
   xmlns:dc="http://purl.org/dc/elements/1.1/"><title
   id="title1">lanbooru icon</title><defs
   id="defs1" /><sodipodi:namedview
   id="namedview1"
   pagecolor="#ffffff"
   bordercolor="#000000"
   borderopacity="0.25"
   inkscape:showpageshadow="2"
   inkscape:pageopacity="0.0"
   inkscape:pagecheckerboard="0"
   inkscape:deskcolor="#d1d1d1"
   inkscape:zoom="1.06875"
   inkscape:cx="312.98246"
   inkscape:cy="279.29825"
   inkscape:window-width="1920"
   inkscape:window-height="1057"
   inkscape:window-x="-8"
   inkscape:window-y="-8"
   inkscape:window-maximized="1"
   inkscape:current-layer="g1" />
<g
   id="g1"
   style="fill:#000000;fill-opacity:1"
   transform="translate(0,-53.063821)">
	<path
   d="m 131.35,422.969 c 14.6,14.6 38.3,14.6 52.9,0 l 181.1,-181.1 c 5.2,-5.2 9.2,-11.4 11.8,-18 18.2,5.1 35.9,7.8 51.5,7.7 38.6,-0.2 51.4,-17.1 55.6,-27.2 4.2,-10 7.2,-31 -19.9,-58.6 -0.3,-0.3 -0.6,-0.6 -0.9,-0.9 -16.8,-16.8 -41.2,-32.3 -68.9,-43.8 -5.1,-2.1 -10.2,-4 -15.2,-5.8 v -0.3 c -0.3,-22.2 -18.2,-40.1 -40.4,-40.4 l -108.5,-1.5 c -14.4,-0.2 -28.2,5.4 -38.3,15.6 l -181.2,181.1 c -14.6,14.6 -14.6,38.3 0,52.9 z m 139.6,-305.1 c 12.1,-12.1 31.7,-12.1 43.8,0 7.2,7.2 10.1,17.1 8.7,26.4 11.9,8.4 26.1,16.2 41.3,22.5 5.4,2.2 10.6,4.2 15.6,5.9 l -0.6,-43.6 c 0.9,0.4 1.7,0.7 2.6,1.1 23.7,9.9 45,23.3 58.7,37 0.2,0.2 0.4,0.4 0.6,0.6 13,13.3 14.4,21.8 13.3,24.4 -3.4,8.1 -39.9,15.3 -95.3,-7.8 -16.2,-6.8 -31.4,-15.2 -43.7,-24.3 -0.4,0.5 -0.9,1 -1.3,1.5 -12.1,12.1 -31.7,12.1 -43.8,0 -12,-12 -12,-31.6 0.1,-43.7 z"
   id="path1"
   style="fill:#3986ed;fill-opacity:1" />
<path
   d="M 37.692078,271.24301 156.2189,389.76983 233.26274,312.72599"
   stroke="#4a9eff"
   stroke-width="42.2322"
   stroke-linecap="round"
   stroke-linejoin="round"
   fill="none"
   id="path2"
   style="stroke:#ffffff;stroke-opacity:1" /><path
   style="fill:#ffffff;fill-opacity:1;stroke:#ffffff;stroke-width:6.90114;stroke-dasharray:none;stroke-opacity:1"
   d="m 183.69795,206.03253 c -5.0359,-0.68316 -10.14498,-0.34646 -15.26871,1.00035 0.23422,-3.73789 -0.0634,-7.37328 -0.90276,-10.87694 -1.68352,-7.07074 -5.07494,-13.18507 -10.06203,-18.17217 -5.30428,-5.30428 -11.95048,-8.91529 -19.73856,-10.73054 -7.88567,-1.84455 -15.77621,-1.26386 -23.43251,1.72742 -7.3733,2.88393 -14.936875,8.2614 -23.115301,16.43984 l -36.85182,36.85183 c -2.37644,2.37643 -2.37644,6.23143 0.006,8.61276 l 98.209651,98.20972 c 2.38132,2.38132 6.23143,2.37644 8.60787,0 l 37.45203,-37.45202 c 6.57788,-6.5779 11.67234,-12.85326 15.12719,-18.6699 3.61591,-6.06552 5.86057,-12.07736 6.69014,-17.86474 0.84908,-5.94354 0.10249,-12.38965 -2.20078,-19.17251 -2.30811,-6.75844 -6.12895,-12.84348 -11.37468,-18.0892 -6.65109,-6.65109 -14.43427,-10.61832 -23.14461,-11.81386 z M 81.960239,226.42498 c -2.01533,-2.01534 -2.02021,-5.27989 -0.006,-7.29521 L 98.5795,202.50448 c 6.40707,-6.4071 11.34536,-10.46704 15.07837,-12.41407 4.3332,-2.26419 8.88114,-2.86928 13.51201,-1.82014 4.37224,0.99547 8.3346,3.24015 11.78457,6.69014 3.68909,3.68907 5.90937,7.81246 6.58278,12.26279 0.68316,4.46983 -0.24398,9.08606 -2.74242,13.70231 -1.70791,3.21086 -5.12372,7.35866 -10.41825,12.65317 l -17.98671,17.98674 c -2.01534,2.01533 -5.27989,2.01045 -7.29522,-0.006 z m 115.103321,23.88146 c 1.1809,3.97211 1.35169,7.83198 0.50262,11.46251 -0.79051,3.38655 -2.43011,6.8902 -4.87975,10.40362 -1.35657,1.97141 -3.80132,4.70894 -7.67583,8.58346 l -20.7145,20.7145 c -2.01533,2.01533 -5.27986,2.01047 -7.2952,-0.006 l -28.60015,-28.5998 c -2.01532,-2.01534 -2.02508,-5.28477 -0.01,-7.30009 l 19.23594,-19.23596 c 5.73858,-5.73857 10.60857,-9.57405 14.88811,-11.73577 4.75286,-2.40084 9.69606,-3.1572 14.6734,-2.25934 4.91879,0.88813 9.35448,3.28408 13.19971,7.12932 3.25964,3.25967 5.50435,6.89995 6.67546,10.84279 z"
   id="path1-2" /></g>
<metadata
   id="metadata1"><rdf:RDF><cc:Work
       rdf:about=""><dc:title>lanbooru icon</dc:title></cc:Work></rdf:RDF></metadata></svg>
