<?xml version="1.0" encoding="UTF-8" standalone="no"?>
<!-- Uploaded to: SVG Repo, www.svgrepo.com, Generator: SVG Repo Mixer Tools -->

<svg
   fill="#000000"
   height="625.6579"
   width="800.00012"
   version="1.1"
   id="Capa_1"
   viewBox="0 0 486.98207 380.85517"
   xml:space="preserve"
   sodipodi:docname="tag-icon.svg"
   inkscape:version="1.4.2 (f4327f4, 2025-05-13)"
   xmlns:inkscape="http://www.inkscape.org/namespaces/inkscape"
   xmlns:sodipodi="http://sodipodi.sourceforge.net/DTD/sodipodi-0.dtd"
   xmlns="http://www.w3.org/2000/svg"
   xmlns:svg="http://www.w3.org/2000/svg"
   xmlns:rdf="http://www.w3.org/1999/02/22-rdf-syntax-ns#"
   xmlns:cc="http://creativecommons.org/ns#"
   xmlns:dc="http://purl.org/dc/elements/1.1/"><title
   id="title1">lanbooru icon</title><defs
   id="defs1" /><sodipodi:namedview
   id="namedview1"
   pagecolor="#ffffff"
   bordercolor="#000000"
   borderopacity="0.25"
   inkscape:showpageshadow="2"
   inkscape:pageopacity="0.0"
   inkscape:pagecheckerboard="0"
   inkscape:deskcolor="#d1d1d1"
   inkscape:zoom="1.06875"
   inkscape:cx="314.8538"
   inkscape:cy="279.29825"
   inkscape:window-width="1920"
   inkscape:window-height="1057"
   inkscape:window-x="-8"
   inkscape:window-y="-8"
   inkscape:window-maximized="1"
   inkscape:current-layer="g1" />
<g
   id="g1"
   style="fill:#000000;fill-opacity:1"
   transform="translate(0,-53.063821)">
	<path
   d="m 131.35,422.969 c 14.6,14.6 38.3,14.6 52.9,0 l 181.1,-181.1 c 5.2,-5.2 9.2,-11.4 11.8,-18 18.2,5.1 35.9,7.8 51.5,7.7 38.6,-0.2 51.4,-17.1 55.6,-27.2 4.2,-10 7.2,-31 -19.9,-58.6 -0.3,-0.3 -0.6,-0.6 -0.9,-0.9 -16.8,-16.8 -41.2,-32.3 -68.9,-43.8 -5.1,-2.1 -10.2,-4 -15.2,-5.8 v -0.3 c -0.3,-22.2 -18.2,-40.1 -40.4,-40.4 l -108.5,-1.5 c -14.4,-0.2 -28.2,5.4 -38.3,15.6 l -181.2,181.1 c -14.6,14.6 -14.6,38.3 0,52.9 z m 139.6,-305.1 c 12.1,-12.1 31.7,-12.1 43.8,0 7.2,7.2 10.1,17.1 8.7,26.4 11.9,8.4 26.1,16.2 41.3,22.5 5.4,2.2 10.6,4.2 15.6,5.9 l -0.6,-43.6 c 0.9,0.4 1.7,0.7 2.6,1.1 23.7,9.9 45,23.3 58.7,37 0.2,0.2 0.4,0.4 0.6,0.6 13,13.3 14.4,21.8 13.3,24.4 -3.4,8.1 -39.9,15.3 -95.3,-7.8 -16.2,-6.8 -31.4,-15.2 -43.7,-24.3 -0.4,0.5 -0.9,1 -1.3,1.5 -12.1,12.1 -31.7,12.1 -43.8,0 -12,-12 -12,-31.6 0.1,-43.7 z"
   id="path1"
   style="fill:#3986ed;fill-opacity:1" />
<path
   d="M 86.888559,227.2098 202.72398,343.04522 296.40825,249.36094"
   stroke="#4a9eff"
   stroke-width="46.0384"
   stroke-linecap="round"
   stroke-linejoin="round"
   fill="none"
   id="path2"
   style="stroke:#ffffff;stroke-opacity:1" /></g>
<metadata
   id="metadata1"><rdf:RDF><cc:Work
       rdf:about=""><dc:title>lanbooru icon</dc:title></cc:Work></rdf:RDF></metadata></svg>
